<svg width="181" xmlns="http://www.w3.org/2000/svg" height="62" id="screenshot-6cde4cf7-7d05-80bb-8004-f2902f54219e" fill="none" version="1.1"><style>@font-face{font-family:&apos;Rubik&apos;;font-style:normal;font-weight:500;font-display:block;src:url(https://design.penpot.app/internal/gfonts/font/rubik/v28/iJWZBXyIfDnIV5PNhY1KTN7Z-Yh-NYiFUkU1Z4Y.woff2) format(&apos;woff2&apos;);unicode-range:U+0600-06FF, U+0750-077F, U+0870-088E, U+0890-0891, U+0898-08E1, U+08E3-08FF, U+200C-200E, U+2010-2011, U+204F, U+2E41, U+FB50-FDFF, U+FE70-FE74, U+FE76-FEFC, U+102E0-102FB, U+10E60-10E7E, U+10EFD-10EFF, U+1EE00-1EE03, U+1EE05-1EE1F, U+1EE21-1EE22, U+1EE24, U+1EE27, U+1EE29-1EE32, U+1EE34-1EE37, U+1EE39, U+1EE3B, U+1EE42, U+1EE47, U+1EE49, U+1EE4B, U+1EE4D-1EE4F, U+1EE51-1EE52, U+1EE54, U+1EE57, U+1EE59, U+1EE5B, U+1EE5D, U+1EE5F, U+1EE61-1EE62, U+1EE64, U+1EE67-1EE6A, U+1EE6C-1EE72, U+1EE74-1EE77, U+1EE79-1EE7C, U+1EE7E, U+1EE80-1EE89, U+1EE8B-1EE9B, U+1EEA1-1EEA3, U+1EEA5-1EEA9, U+1EEAB-1EEBB, U+1EEF0-1EEF1}@font-face{font-family:&apos;Rubik&apos;;font-style:normal;font-weight:500;font-display:block;src:url(https://design.penpot.app/internal/gfonts/font/rubik/v28/iJWZBXyIfDnIV5PNhY1KTN7Z-Yh-NYiFWkU1Z4Y.woff2) format(&apos;woff2&apos;);unicode-range:U+0460-052F, U+1C80-1C88, U+20B4, U+2DE0-2DFF, U+A640-A69F, U+FE2E-FE2F}@font-face{font-family:&apos;Rubik&apos;;font-style:normal;font-weight:500;font-display:block;src:url(https://design.penpot.app/internal/gfonts/font/rubik/v28/iJWZBXyIfDnIV5PNhY1KTN7Z-Yh-NYiFU0U1Z4Y.woff2) format(&apos;woff2&apos;);unicode-range:U+0301, U+0400-045F, U+0490-0491, U+04B0-04B1, U+2116}@font-face{font-family:&apos;Rubik&apos;;font-style:normal;font-weight:500;font-display:block;src:url(https://design.penpot.app/internal/gfonts/font/rubik/v28/iJWZBXyIfDnIV5PNhY1KTN7Z-Yh-NYiFVUU1Z4Y.woff2) format(&apos;woff2&apos;);unicode-range:U+0590-05FF, U+200C-2010, U+20AA, U+25CC, U+FB1D-FB4F}@font-face{font-family:&apos;Rubik&apos;;font-style:normal;font-weight:500;font-display:block;src:url(https://design.penpot.app/internal/gfonts/font/rubik/v28/iJWZBXyIfDnIV5PNhY1KTN7Z-Yh-NYiFWUU1Z4Y.woff2) format(&apos;woff2&apos;);unicode-range:U+0100-02AF, U+0304, U+0308, U+0329, U+1E00-1E9F, U+1EF2-1EFF, U+2020, U+20A0-20AB, U+20AD-20C0, U+2113, U+2C60-2C7F, U+A720-A7FF}@font-face{font-family:&apos;Rubik&apos;;font-style:normal;font-weight:500;font-display:block;src:url(https://design.penpot.app/internal/gfonts/font/rubik/v28/iJWZBXyIfDnIV5PNhY1KTN7Z-Yh-NYiFV0U1.woff2) format(&apos;woff2&apos;);unicode-range:U+0000-00FF, U+0131, U+0152-0153, U+02BB-02BC, U+02C6, U+02DA, U+02DC, U+0304, U+0308, U+0329, U+2000-206F, U+2074, U+20AC, U+2122, U+2191, U+2193, U+2212, U+2215, U+FEFF, U+FFFD}</style><g id="shape-6cde4cf7-7d05-80bb-8004-f2902f54219e" data-testid="Group"><g id="shape-7f5fb42a-119e-8086-8004-f98aef0d3fce" data-testid="Logo"><g class="fills" id="fills-7f5fb42a-119e-8086-8004-f98aef0d3fce"><rect rx="0" ry="0" width="62" height="62" class="frame-background"/></g><g class="frame-children"><g id="shape-6cde4cf7-7d05-80bb-8004-f28f39fc8e99" data-testid="logo" style="fill: rgb(0, 0, 0);"><g id="shape-6cde4cf7-7d05-80bb-8004-f28f3a1658f2" data-testid="svg-path"><path d="M30.618 24.898a.378.378 0 0 0-.144.027.934.934 0 0 1-.252.02c-.132 0-.238.009-.245.02-.007.012-.091.021-.186.021a.54.54 0 0 0-.184.018.506.506 0 0 1-.167.033.506.506 0 0 0-.167.033c-.006.011-.061.019-.123.019-.061 0-.117.01-.124.021-.007.011-.053.021-.102.021a.508.508 0 0 0-.163.031.433.433 0 0 1-.136.031c-.034 0-.067.009-.074.02-.007.012-.054.021-.103.021-.05 0-.097.009-.104.021-.007.011-.037.021-.068.021a.257.257 0 0 0-.107.03.291.291 0 0 1-.119.031c-.037 0-.067.01-.067.021 0 .011-.032.021-.071.021-.04 0-.077.009-.084.02-.007.012-.033.021-.058.021a.285.285 0 0 0-.105.031.272.272 0 0 1-.098.031.192.192 0 0 0-.075.018c-.02.01-.087.035-.15.055a.62.62 0 0 0-.133.054c-.011.01-.045.018-.077.018-.031 0-.062.009-.069.02-.007.012-.03.021-.05.021a.095.095 0 0 0-.064.031.107.107 0 0 1-.073.031c-.027 0-.054.009-.061.021-.007.011-.027.02-.044.02a.642.642 0 0 0-.148.054l-.159.069a7.71 7.71 0 0 0-.326.148.164.164 0 0 1-.057.019.392.392 0 0 0-.103.051.337.337 0 0 1-.113.052c-.018 0-.032.009-.032.021 0 .011-.018.02-.04.02-.022 0-.045.009-.052.02a.394.394 0 0 1-.167.084c-.015 0-.03.007-.033.015a.63.63 0 0 1-.131.077 3.386 3.386 0 0 0-.233.129.88.88 0 0 1-.122.068.321.321 0 0 0-.081.052.358.358 0 0 1-.081.051.902.902 0 0 0-.125.073.714.714 0 0 1-.134.072c-.011 0-.02.007-.02.016 0 .009-.033.033-.072.055-.04.021-.073.047-.073.056 0 .01-.009.018-.021.018-.029 0-.33.211-.33.231 0 .009-.018.017-.04.017-.021 0-.042.007-.046.016-.006.016-.08.074-.346.271a1.1 1.1 0 0 0-.128.109c-.019.021-.041.038-.049.038-.078 0-1.188 1.092-6.263 6.165a2407.911 2407.911 0 0 1-5.774 5.761c-.092.083-.097.099-.016.058.025-.012 2.616-2.592 5.759-5.732 4.886-4.88 5.885-5.868 6.19-6.113l.165-.135a12.75 12.75 0 0 1 1.707-1.152c.08-.051.739-.385.887-.451l.284-.126a3.059 3.059 0 0 1 .302-.123 7.06 7.06 0 0 1 .272-.105c.113-.042.225-.084.248-.094a6.467 6.467 0 0 1 .547-.175c.196-.058.651-.178.765-.201l.258-.055a12.405 12.405 0 0 1 3.245-.25c.388.023.735.054.94.083.519.074.638.094.982.167l.258.054a13.462 13.462 0 0 1 2.108.691l.166.074c.242.107.776.366.816.397a14.22 14.22 0 0 1 1.405.876 9.724 9.724 0 0 1 .518.396c.125.096.52.436.681.587.08.074 2.674 2.662 5.766 5.75s5.642 5.625 5.666 5.637c.065.033.087.027.038-.009a2247.52 2247.52 0 0 1-5.766-5.752c-3.149-3.146-5.823-5.803-5.944-5.905l-.264-.221a95.838 95.838 0 0 1-.445-.361c-.017-.014-.036-.026-.043-.026a.273.273 0 0 1-.068-.051c-.03-.029-.067-.052-.082-.052-.014 0-.026-.007-.026-.016a.896.896 0 0 0-.17-.129 2.954 2.954 0 0 1-.21-.15c-.023-.019-.049-.036-.059-.036a.3.3 0 0 1-.086-.051.269.269 0 0 0-.09-.052c-.012 0-.025-.007-.029-.015a.866.866 0 0 0-.194-.13.262.262 0 0 1-.068-.038 2.615 2.615 0 0 0-.179-.107 9.994 9.994 0 0 0-.837-.439l-.279-.129a4.935 4.935 0 0 0-.217-.098 5.43 5.43 0 0 1-.232-.101.202.202 0 0 0-.077-.018c-.023 0-.042-.007-.042-.015 0-.017-.121-.064-.212-.082-.031-.006-.057-.019-.057-.029 0-.01-.021-.018-.047-.018s-.057-.008-.067-.017a.83.83 0 0 0-.144-.054c-.068-.021-.143-.044-.165-.053a1.502 1.502 0 0 0-.243-.077c-.032-.006-.063-.019-.069-.029-.006-.01-.043-.018-.082-.018-.039 0-.071-.01-.071-.021 0-.011-.032-.021-.07-.021a.326.326 0 0 1-.129-.031.325.325 0 0 0-.115-.031c-.031 0-.062-.009-.069-.02-.007-.012-.054-.021-.104-.021-.051 0-.092-.009-.092-.021 0-.011-.027-.02-.061-.02a.405.405 0 0 1-.118-.023 1.878 1.878 0 0 0-.41-.074c-.068-.006-.129-.018-.134-.027-.014-.02-.297-.063-.496-.075a.83.83 0 0 1-.197-.029 1.339 1.339 0 0 0-.268-.028 4.836 4.836 0 0 1-.383-.031c-.143-.019-1.317-.025-1.601-.008Zm.165 4.49a7.013 7.013 0 0 0-1.209.188l-.248.06-.186.051-.176.052a5.901 5.901 0 0 0-.627.231c-.05.022-.138.059-.196.082-.409.161-1.2.625-1.605.941-.262.204-.488.392-.626.519-.35.323-16.507 16.487-16.507 16.515 0 .056.402.489 1.136 1.223a25.697 25.697 0 0 0 1.685 1.57c.261.231.908.75 1.519 1.218a32.05 32.05 0 0 0 2.274 1.539l.289.177.424.244c.709.406.845.479 1.57.839.33.164.655.323.724.354.445.202.578.258.617.258.031 0 .893-.848 2.896-2.848a355.405 355.405 0 0 1 3.079-3.054 57.393 57.393 0 0 0 .693-.637l.754-.695c.199-.185.599-.552.743-.682.822-.74 1.755-1.171 2.915-1.346.253-.038 1.155-.038 1.405 0 .261.04.623.118.834.179a5.46 5.46 0 0 1 1.799.937c.207.164.356.299 1.252 1.128.375.348.428.396 1.056.972.272.249 1.76 1.717 3.306 3.261l2.812 2.807.082-.034c.114-.048.237-.103.459-.208.106-.05.197-.09.203-.09.015 0 1.153-.569 1.355-.678a29.77 29.77 0 0 0 2.425-1.448c.373-.247.894-.607 1.064-.737l.362-.27c.136-.101.313-.236.393-.299a28.676 28.676 0 0 0 2.055-1.754c.603-.555 1.861-1.855 1.861-1.922 0-.023-16.604-16.609-16.719-16.702a8.275 8.275 0 0 0-.756-.572 7.965 7.965 0 0 0-2.768-1.196 6.864 6.864 0 0 0-1.602-.181c-.312-.005-.68-.002-.816.008Zm-.057.043a1.103 1.103 0 0 1-.243.033.855.855 0 0 0-.219.03c-.006.01-.07.018-.144.018-.075 0-.133.009-.133.021 0 .011-.042.02-.094.02a.38.38 0 0 0-.136.022c-.037.02-.124.04-.317.074a.574.574 0 0 0-.104.028.538.538 0 0 1-.093.028 1.218 1.218 0 0 0-.232.078.233.233 0 0 1-.088.018.215.215 0 0 0-.088.02.678.678 0 0 1-.214.084c-.02 0-.042.009-.049.02-.007.012-.03.021-.05.021a.429.429 0 0 0-.134.052.486.486 0 0 1-.128.051c-.027 0-.071.019-.153.066a7.37 7.37 0 0 0-.802.417.436.436 0 0 1-.107.055c-.012 0-.021.008-.021.018 0 .01-.017.024-.036.03a.438.438 0 0 0-.13.078.385.385 0 0 1-.074.052 2.455 2.455 0 0 0-.176.123 1.975 1.975 0 0 1-.163.114.377.377 0 0 0-.062.041 4.913 4.913 0 0 1-.134.111 4.892 4.892 0 0 0-.211.179.551.551 0 0 1-.1.08c-.008 0-.032.024-.055.052-.022.028-.049.052-.059.052-.011 0-3.736 3.715-8.28 8.256l-8.26 8.257.071.075.123.131.186.208a45.874 45.874 0 0 0 1.56 1.559c.102.091.246.223.32.293.074.07.17.156.214.19.044.035.138.117.209.183.072.066.166.147.209.181.044.034.167.137.274.228.107.091.22.184.25.206a22.421 22.421 0 0 0 1.059.816 8.563 8.563 0 0 0 .627.451c.08.054.168.118.196.144.028.025.062.046.074.046.013 0 .04.019.061.042.02.022.047.041.06.041.012 0 .048.023.078.052a.25.25 0 0 0 .071.051c.008 0 .045.024.082.052a.313.313 0 0 0 .086.052c.01 0 .036.016.058.036.041.037.13.098.205.139.034.019.198.122.435.274.022.015.071.042.108.061.037.019.067.042.067.051 0 .01.009.017.021.017.012 0 .059.024.105.053l.149.091c.145.083.442.257.5.292.034.021.095.054.134.074.04.02.128.068.197.107.195.111.479.259.981.511a27.7 27.7 0 0 0 1.369.651c.02.011.047.019.06.019.013 0 1.295-1.268 2.847-2.819a1090.45 1090.45 0 0 1 2.909-2.899l.246-.223c.089-.08.194-.178.235-.217.041-.04.153-.142.249-.228.097-.085.269-.244.383-.353.114-.11.258-.244.32-.298.063-.054.203-.183.313-.287.109-.103.24-.225.291-.271.051-.045.18-.163.287-.262.236-.218.384-.334.708-.554.1-.068.195-.124.21-.124.015 0 .03-.007.034-.016.011-.025.164-.115.307-.181a.657.657 0 0 0 .141-.077c.004-.008.021-.015.038-.015a.246.246 0 0 0 .086-.029c.053-.027.118-.055.215-.092l.125-.052a.4.4 0 0 1 .117-.034c.022 0 .046-.009.053-.021.007-.011.038-.02.07-.02.031 0 .064-.007.073-.016.026-.027.348-.102.539-.127a.93.93 0 0 0 .157-.031c.183-.081 1.618-.073 1.702.01.01.01.062.019.114.019.053 0 .104.008.115.019.011.01.062.023.113.028.051.005.144.026.206.045.063.02.137.04.166.046.028.005.07.017.093.026.022.01.083.033.134.053.051.019.109.044.129.054.02.01.049.018.065.018s.075.023.13.05c.055.027.176.084.27.127a.643.643 0 0 1 .171.096c0 .009.017.017.038.017.022 0 .051.014.065.031.014.017.035.031.046.031.021 0 .468.291.515.335.015.014.065.054.111.087.158.117.352.286.558.485.113.11.289.274.391.364.101.091.248.225.325.299.078.074.204.19.281.259.076.068.209.189.294.269.086.08.202.186.259.236.352.311.977.926 3.496 3.44l2.814 2.809.069-.027c.038-.015.134-.057.213-.094.184-.084.332-.15.424-.189.04-.017.1-.046.134-.064.078-.041.048-.026.538-.267.227-.111.416-.21.42-.218.004-.009.023-.016.042-.016.02 0 .045-.008.055-.018.024-.021.153-.093.423-.235a3.36 3.36 0 0 0 .217-.119c.021-.016.062-.04.289-.164a2.75 2.75 0 0 0 .145-.084c.011-.009.067-.042.124-.073a5.51 5.51 0 0 0 .405-.239.96.96 0 0 1 .181-.101c.013 0 .024-.008.024-.017 0-.01.025-.03.056-.046a.99.99 0 0 0 .121-.076.252.252 0 0 1 .088-.047c.013 0 .024-.009.024-.021 0-.011.01-.02.022-.02a.289.289 0 0 0 .09-.052.429.429 0 0 1 .078-.052c.006 0 .143-.088.305-.196.162-.108.302-.196.313-.196.01 0 .019-.008.019-.018 0-.009.032-.035.072-.056.04-.022.072-.044.072-.051a.49.49 0 0 1 .104-.072.357.357 0 0 0 .103-.075c0-.008.017-.02.038-.027a.263.263 0 0 0 .078-.049.913.913 0 0 1 .101-.078c.081-.052.409-.295.648-.479a.968.968 0 0 1 .125-.088.757.757 0 0 0 .116-.093.656.656 0 0 1 .119-.092c.009 0 .037-.02.062-.044.025-.024.092-.079.149-.122.057-.044.128-.101.159-.127.03-.027.08-.066.11-.088.03-.022.075-.058.099-.08a6.173 6.173 0 0 0 .337-.289c.058-.055.134-.12.168-.145a3.02 3.02 0 0 0 .165-.139c.056-.051.161-.144.233-.206.072-.063.211-.189.309-.281.097-.092.247-.231.332-.309a32.223 32.223 0 0 0 1.548-1.58.85.85 0 0 0 .126-.155c0-.027-16.478-16.498-16.655-16.649l-.176-.149-.09-.078a.194.194 0 0 0-.062-.04.354.354 0 0 1-.081-.057 1.138 1.138 0 0 0-.21-.161c-.036-.021-.065-.046-.065-.055 0-.009-.012-.016-.026-.016-.015 0-.052-.024-.082-.052-.031-.028-.069-.052-.085-.052-.015 0-.046-.019-.068-.043a.294.294 0 0 0-.08-.062 1.306 1.306 0 0 1-.124-.069 2.324 2.324 0 0 0-.166-.094 6.672 6.672 0 0 1-.206-.115 2.336 2.336 0 0 0-.181-.097c-.031-.014-.057-.032-.057-.041 0-.009-.017-.016-.037-.016-.034 0-.202-.07-.299-.125a.165.165 0 0 0-.067-.02c-.017 0-.031-.009-.031-.02 0-.012-.016-.021-.036-.021a.276.276 0 0 1-.096-.031.27.27 0 0 0-.087-.031c-.016 0-.029-.009-.029-.021 0-.011-.027-.02-.061-.02-.033 0-.066-.01-.073-.021-.007-.011-.029-.021-.048-.021a.268.268 0 0 1-.094-.031.274.274 0 0 0-.097-.031c-.021 0-.044-.009-.051-.02-.007-.012-.039-.021-.072-.021-.033 0-.065-.009-.072-.019-.006-.011-.053-.026-.104-.034-.051-.008-.098-.022-.104-.032-.007-.01-.048-.018-.092-.018s-.086-.01-.093-.021c-.007-.011-.042-.021-.079-.021a.324.324 0 0 1-.125-.031.375.375 0 0 0-.146-.031c-.047 0-.095-.008-.106-.019a.467.467 0 0 0-.154-.03c-.329-.026-.569-.057-.587-.075-.028-.028-1.354-.026-1.402.002Z" fill-rule="evenodd" style="fill: rgb(0, 0, 0); fill-opacity: 1;" class="fills" id="fills-6cde4cf7-7d05-80bb-8004-f28f3a1658f2"/></g><g id="shape-6cde4cf7-7d05-80bb-8004-f28f3a2c15a0" data-testid="svg-path"><path d="M25.114 3.807c-.019.019-.025 1.629-.025 7.145v7.121l-5.037-5.038C16.707 9.691 15 7.998 14.973 7.998c-.057 0-8.897 8.84-8.897 8.897 0 .028 1.685 1.727 5.043 5.084l5.043 5.043-7.156.01-7.156.01.004 1.509c.002.83.013 1.709.024 1.953.035.765.097 1.556.127 1.622.01.023.023.121.028.217.011.2.039.435.086.734.018.114.041.272.051.351.038.294.061.436.082.507a.608.608 0 0 1 .021.148c0 .042.01.082.021.089.011.007.021.05.021.094 0 .045.009.121.019.17l.043.191c.013.057.032.15.042.207l.038.206.044.228a.447.447 0 0 0 .042.143c.011.011.02.048.02.081 0 .034.008.091.019.126.011.034.036.137.056.228a.818.818 0 0 0 .053.185c.009.011.016.055.016.097 0 .043.009.083.019.089.01.006.023.046.029.089.011.082.05.236.078.305a.775.775 0 0 1 .029.103c.033.16.047.21.069.252a.252.252 0 0 1 .024.097c0 .029.01.058.021.065.011.007.021.031.021.054 0 .046.055.237.084.292.01.019.019.054.019.077s.009.058.019.078c.01.02.034.092.053.16.018.068.043.14.053.16.011.02.02.05.02.067 0 .018.008.048.018.068.01.02.035.091.056.16.02.068.044.138.052.155.008.017.029.077.046.134.033.107.07.218.098.289l.071.197c.03.085.062.173.072.196.01.023.034.088.053.145.02.057.044.112.054.123.009.01.017.039.017.063s.022.064.048.089l.048.045h7.505l.1-.091c.055-.05 2.654-2.643 5.774-5.761 5.065-5.063 6.174-6.155 6.252-6.155.008 0 .03-.017.049-.038.03-.034.107-.094.372-.291a.634.634 0 0 0 .102-.088c.004-.01.025-.017.046-.017.022 0 .04-.008.04-.017 0-.02.301-.231.33-.231.012 0 .021-.008.021-.018 0-.009.033-.035.073-.056.039-.022.072-.046.072-.055 0-.009.009-.016.02-.016a.714.714 0 0 0 .134-.072.902.902 0 0 1 .125-.073.358.358 0 0 0 .081-.051.321.321 0 0 1 .081-.052.88.88 0 0 0 .122-.068c.06-.037.164-.095.233-.129a.63.63 0 0 0 .131-.077c.003-.008.018-.015.033-.015.034 0 .152-.06.167-.084.007-.011.03-.02.052-.02s.04-.009.04-.02c0-.012.014-.021.032-.021a.337.337 0 0 0 .113-.052.392.392 0 0 1 .103-.051.164.164 0 0 0 .057-.019 7.71 7.71 0 0 1 .326-.148l.159-.069a.642.642 0 0 1 .148-.054c.017 0 .037-.009.044-.02.007-.012.034-.021.061-.021a.107.107 0 0 0 .073-.031.095.095 0 0 1 .064-.031c.02 0 .043-.009.05-.021.007-.011.038-.02.069-.02.032 0 .066-.008.077-.018.01-.01.07-.034.133-.054.063-.02.13-.045.15-.055a.192.192 0 0 1 .075-.018.272.272 0 0 0 .098-.031.285.285 0 0 1 .105-.031c.025 0 .051-.009.058-.021.007-.011.044-.02.084-.02.039 0 .071-.01.071-.021 0-.011.03-.021.067-.021a.291.291 0 0 0 .119-.031.257.257 0 0 1 .107-.03c.031 0 .061-.01.068-.021.007-.012.054-.021.104-.021.049 0 .096-.009.103-.021.007-.011.04-.02.074-.02a.433.433 0 0 0 .136-.031.508.508 0 0 1 .163-.031c.049 0 .095-.01.102-.021.007-.011.063-.021.124-.021.062 0 .117-.008.123-.019a.506.506 0 0 1 .167-.033.506.506 0 0 0 .167-.033.54.54 0 0 1 .184-.018c.095 0 .179-.009.186-.021.007-.011.113-.02.245-.02.156 0 .241-.009.258-.026.036-.036 1.452-.049 1.708-.015.103.013.289.028.414.033.125.005.246.017.268.028a.83.83 0 0 0 .197.029c.199.012.482.055.496.075.005.009.066.021.134.027.161.014.336.045.41.074a.405.405 0 0 0 .118.023c.034 0 .061.009.061.02 0 .012.041.021.092.021.05 0 .097.009.104.021.007.011.038.02.069.02.03.001.082.014.115.031.032.017.09.031.129.031.038 0 .07.01.07.021 0 .011.032.021.071.021.039 0 .076.008.082.018.006.01.037.023.069.029.05.009.094.023.243.077.022.009.097.032.165.053a.83.83 0 0 1 .144.054c.01.009.041.017.067.017.026 0 .047.008.047.018 0 .01.026.023.057.029.091.018.212.065.212.082 0 .008.019.015.042.015.023 0 .057.008.077.018.041.02.156.07.232.101.029.011.126.055.217.098l.279.129a9.994 9.994 0 0 1 .837.439c.069.038.149.086.179.107.03.021.061.038.068.038.019 0 .186.112.194.13.004.008.017.015.029.015s.053.023.09.052a.3.3 0 0 0 .086.051c.01 0 .036.017.059.036.022.02.117.088.21.15.094.062.17.12.17.129 0 .009.012.016.026.016.015 0 .052.023.082.052a.27.27 0 0 0 .069.051c.007 0 .025.012.041.026l.055.047.391.314.264.221c.121.102 2.795 2.759 5.944 5.905a2247.52 2247.52 0 0 0 5.766 5.752c.036.027.494.031 3.772.031 2.051 0 3.751-.005 3.776-.012.026-.007.047-.025.047-.039 0-.015.016-.058.034-.096.063-.126.069-.141.069-.172 0-.018.009-.048.019-.068a.83.83 0 0 0 .085-.218c0-.018.009-.038.02-.045.012-.007.021-.031.021-.053s.008-.057.018-.076a.797.797 0 0 0 .085-.232c0-.022.01-.045.021-.052.011-.007.021-.034.021-.059 0-.026.008-.056.018-.066a.647.647 0 0 0 .053-.144c.02-.068.044-.14.054-.16a.163.163 0 0 0 .019-.065c0-.016.014-.055.031-.088a.276.276 0 0 0 .031-.104c0-.025.01-.051.021-.058.011-.007.021-.036.021-.064 0-.028.008-.067.018-.086.011-.02.035-.092.055-.16.019-.069.043-.14.053-.16a.207.207 0 0 0 .018-.078c0-.023.008-.058.018-.078.035-.07.086-.249.086-.301 0-.029.009-.058.02-.065.012-.007.021-.041.021-.074a.26.26 0 0 1 .019-.097c.011-.02.035-.092.053-.16.019-.068.042-.153.053-.187a.46.46 0 0 0 .02-.11c0-.026.009-.065.021-.086a.654.654 0 0 0 .042-.139l.043-.191c.011-.051.025-.13.032-.176a.311.311 0 0 1 .03-.106c.02-.025.054-.18.072-.328a.617.617 0 0 1 .027-.124c.029-.071.096-.418.117-.609a.637.637 0 0 1 .029-.135c.023-.05.064-.289.077-.444a.362.362 0 0 1 .028-.133c.011-.011.019-.07.019-.131a.43.43 0 0 1 .021-.15c.011-.021.031-.12.043-.221.046-.372.06-.496.076-.677.009-.103.023-.197.032-.211.018-.03.056-.43.069-.74a1.06 1.06 0 0 1 .029-.247.572.572 0 0 0 .019-.19c0-.094.014-.327.032-.518.024-.268.032-.724.036-2l.005-1.654-7.156-.01-7.156-.01 5.043-5.043c3.097-3.097 5.042-5.057 5.042-5.081 0-.052-8.848-8.9-8.9-8.9-.023 0-2.012 1.974-5.081 5.043l-5.042 5.042-.011-7.145-.01-7.146-6.294-.005c-4.878-.004-6.3.001-6.319.02Zm5.612 25.624a1.103 1.103 0 0 1-.243.033.855.855 0 0 0-.219.03c-.006.01-.07.018-.144.018-.075 0-.133.009-.133.021 0 .011-.042.02-.094.02a.38.38 0 0 0-.136.022c-.037.02-.124.04-.317.074a.574.574 0 0 0-.104.028.538.538 0 0 1-.093.028 1.218 1.218 0 0 0-.232.078.233.233 0 0 1-.088.018.215.215 0 0 0-.088.02.678.678 0 0 1-.214.084c-.02 0-.042.009-.049.02-.007.012-.03.021-.05.021a.429.429 0 0 0-.134.052.486.486 0 0 1-.128.051c-.027 0-.071.019-.153.066a7.37 7.37 0 0 0-.802.417.436.436 0 0 1-.107.055c-.012 0-.021.008-.021.018 0 .01-.017.024-.036.03a.438.438 0 0 0-.13.078.385.385 0 0 1-.074.052 2.455 2.455 0 0 0-.176.123 1.975 1.975 0 0 1-.163.114.377.377 0 0 0-.062.041 4.913 4.913 0 0 1-.134.111 4.892 4.892 0 0 0-.211.179.551.551 0 0 1-.1.08c-.008 0-.032.024-.055.052-.022.028-.049.052-.059.052-.011 0-3.736 3.715-8.28 8.256l-8.26 8.257.071.075.123.131.186.208a45.874 45.874 0 0 0 1.56 1.559c.102.091.246.223.32.293.074.07.17.156.214.19.044.035.138.117.209.183.072.066.166.147.209.181.044.034.167.137.274.228.107.091.22.184.25.206a22.421 22.421 0 0 0 1.059.816 8.563 8.563 0 0 0 .627.451c.08.054.168.118.196.144.028.025.062.046.074.046.013 0 .04.019.061.042.02.022.047.041.06.041.012 0 .048.023.078.052a.25.25 0 0 0 .071.051c.008 0 .045.024.082.052a.313.313 0 0 0 .086.052c.01 0 .036.016.058.036.041.037.13.098.205.139.034.019.198.122.435.274.022.015.071.042.108.061.037.019.067.042.067.051 0 .01.009.017.021.017.012 0 .059.024.105.053l.149.091c.145.083.442.257.5.292.034.021.095.054.134.074.04.02.128.068.197.107.195.111.479.259.981.511a27.7 27.7 0 0 0 1.369.651c.02.011.047.019.06.019.013 0 1.295-1.268 2.847-2.819a1090.45 1090.45 0 0 1 2.909-2.899l.246-.223c.089-.08.194-.178.235-.217.041-.04.153-.142.249-.228.097-.085.269-.244.383-.353.114-.11.258-.244.32-.298.063-.054.203-.183.313-.287.109-.103.24-.225.291-.271.051-.045.18-.163.287-.262.236-.218.384-.334.708-.554.1-.068.195-.124.21-.124.015 0 .03-.007.034-.016.011-.025.164-.115.307-.181a.657.657 0 0 0 .141-.077c.004-.008.021-.015.038-.015a.246.246 0 0 0 .086-.029c.053-.027.118-.055.215-.092l.125-.052a.4.4 0 0 1 .117-.034c.022 0 .046-.009.053-.021.007-.011.038-.02.07-.02.031 0 .064-.007.073-.016.026-.027.348-.102.539-.127a.93.93 0 0 0 .157-.031c.183-.081 1.618-.073 1.702.01.01.01.062.019.114.019.053 0 .104.008.115.019.011.01.062.023.113.028.051.005.144.026.206.045.063.02.137.04.166.046.028.005.07.017.093.026.022.01.083.033.134.053.051.019.109.044.129.054.02.01.049.018.065.018s.075.023.13.05c.055.027.176.084.27.127a.643.643 0 0 1 .171.096c0 .009.017.017.038.017.022 0 .051.014.065.031.014.017.035.031.046.031.021 0 .468.291.515.335.015.014.065.054.111.087.158.117.352.286.558.485.113.11.289.274.391.364.101.091.248.225.325.299.078.074.204.19.281.259.076.068.209.189.294.269.086.08.202.186.259.236.352.311.977.926 3.496 3.44l2.814 2.809.069-.027c.038-.015.134-.057.213-.094.184-.084.332-.15.424-.189.04-.017.1-.046.134-.064.078-.041.048-.026.538-.267.227-.111.416-.21.42-.218.004-.009.023-.016.042-.016.02 0 .045-.008.055-.018.024-.021.153-.093.423-.235a3.36 3.36 0 0 0 .217-.119c.021-.016.062-.04.289-.164a2.75 2.75 0 0 0 .145-.084c.011-.009.067-.042.124-.073a5.51 5.51 0 0 0 .405-.239.96.96 0 0 1 .181-.101c.013 0 .024-.008.024-.017 0-.01.025-.03.056-.046a.99.99 0 0 0 .121-.076.252.252 0 0 1 .088-.047c.013 0 .024-.009.024-.021 0-.011.01-.02.022-.02a.289.289 0 0 0 .09-.052.429.429 0 0 1 .078-.052c.006 0 .143-.088.305-.196.162-.108.302-.196.313-.196.01 0 .019-.008.019-.018 0-.009.032-.035.072-.056.04-.022.072-.044.072-.051a.49.49 0 0 1 .104-.072.357.357 0 0 0 .103-.075c0-.008.017-.02.038-.027a.263.263 0 0 0 .078-.049.913.913 0 0 1 .101-.078c.081-.052.409-.295.648-.479a.968.968 0 0 1 .125-.088.757.757 0 0 0 .116-.093.656.656 0 0 1 .119-.092c.009 0 .037-.02.062-.044.025-.024.092-.079.149-.122.057-.044.128-.101.159-.127.03-.027.08-.066.11-.088.03-.022.075-.058.099-.08a6.173 6.173 0 0 0 .337-.289c.058-.055.134-.12.168-.145a3.02 3.02 0 0 0 .165-.139c.056-.051.161-.144.233-.206.072-.063.211-.189.309-.281.097-.092.247-.231.332-.309a32.223 32.223 0 0 0 1.548-1.58.85.85 0 0 0 .126-.155c0-.027-16.478-16.498-16.655-16.649l-.176-.149-.09-.078a.194.194 0 0 0-.062-.04.354.354 0 0 1-.081-.057 1.138 1.138 0 0 0-.21-.161c-.036-.021-.065-.046-.065-.055 0-.009-.012-.016-.026-.016-.015 0-.052-.024-.082-.052-.031-.028-.069-.052-.085-.052-.015 0-.046-.019-.068-.043a.294.294 0 0 0-.08-.062 1.306 1.306 0 0 1-.124-.069 2.324 2.324 0 0 0-.166-.094 6.672 6.672 0 0 1-.206-.115 2.336 2.336 0 0 0-.181-.097c-.031-.014-.057-.032-.057-.041 0-.009-.017-.016-.037-.016-.034 0-.202-.07-.299-.125a.165.165 0 0 0-.067-.02c-.017 0-.031-.009-.031-.02 0-.012-.016-.021-.036-.021a.276.276 0 0 1-.096-.031.27.27 0 0 0-.087-.031c-.016 0-.029-.009-.029-.021 0-.011-.027-.02-.061-.02-.033 0-.066-.01-.073-.021-.007-.011-.029-.021-.048-.021a.268.268 0 0 1-.094-.031.274.274 0 0 0-.097-.031c-.021 0-.044-.009-.051-.02-.007-.012-.039-.021-.072-.021-.033 0-.065-.009-.072-.019-.006-.011-.053-.026-.104-.034-.051-.008-.098-.022-.104-.032-.007-.01-.048-.018-.092-.018s-.086-.01-.093-.021c-.007-.011-.042-.021-.079-.021a.324.324 0 0 1-.125-.031.375.375 0 0 0-.146-.031c-.047 0-.095-.008-.106-.019a.467.467 0 0 0-.154-.03c-.329-.026-.569-.057-.587-.075-.028-.028-1.354-.026-1.402.002Z" fill-rule="evenodd" style="fill: rgb(0, 0, 0); fill-opacity: 1;" class="fills" id="fills-6cde4cf7-7d05-80bb-8004-f28f3a2c15a0"/></g></g></g></g><g class="text-container" id="shape-6cde4cf7-7d05-80bb-8004-f28fbdf245ca" data-testid="Thrivr"><defs><pattern patternUnits="userSpaceOnUse" x="77" y="9" width="103.979" height="42.667" id="fill-0-render-7-0"><rect width="103.979" height="42.667" style="fill: rgb(0, 0, 0); fill-opacity: 1;"/></pattern></defs><text x="77" y="51.667" dominant-baseline="ideographic" textLength="103.979" lengthAdjust="spacingAndGlyphs" style="text-transform: none; font-family: Rubik; letter-spacing: normal; font-style: normal; font-weight: 500; white-space: pre; font-size: 36px; text-decoration: none solid rgb(0, 0, 0); direction: ltr; fill: rgb(0, 0, 0); fill-opacity: 1;" class="fills" id="fills-6cde4cf7-7d05-80bb-8004-f28fbdf245ca">Thrivr</text></g></g></svg>